<svg xmlns="http://www.w3.org/2000/svg" viewBox="0 0 64 64">
  <defs>
    <radialGradient id="bg" cx="50%" cy="50%" r="55%">
      <stop offset="0%" stop-color="#1a0d3a"></stop>
      <stop offset="60%" stop-color="#070218"></stop>
      <stop offset="100%" stop-color="#000007"></stop>
    </radialGradient>
    <radialGradient id="nuc" cx="50%" cy="50%" r="48%">
      <stop offset="0%" stop-color="#fff5dc" stop-opacity="1"></stop>
      <stop offset="14%" stop-color="#ffdca0" stop-opacity="0.95"></stop>
      <stop offset="34%" stop-color="#9ad5ff" stop-opacity="0.55"></stop>
      <stop offset="65%" stop-color="#aa44ff" stop-opacity="0.20"></stop>
      <stop offset="100%" stop-color="#000" stop-opacity="0"></stop>
    </radialGradient>
    <linearGradient id="arm" x1="0" y1="32" x2="64" y2="32" gradientUnits="userSpaceOnUse">
      <stop offset="0%" stop-color="#00f0ff" stop-opacity="0"></stop>
      <stop offset="30%" stop-color="#9ad5ff"></stop>
      <stop offset="60%" stop-color="#aa44ff"></stop>
      <stop offset="100%" stop-color="#3a1e7a" stop-opacity="0"></stop>
    </linearGradient>
  </defs>
  <rect width="64" height="64" fill="none"></rect>
  <circle cx="32" cy="32" r="29" fill="#aa44ff" opacity="0.18"></circle>
  <g fill="none" stroke="url(#arm)" stroke-linecap="round">
    <path d="M32 32 q 6 -10 16 -10 q 8 0 12 8" stroke-width="4" opacity="0.9"></path>
    <path d="M32 32 q -6 10 -16 10 q -8 0 -12 -8" stroke-width="4" opacity="0.9"></path>
    <path d="M32 32 q 6 -10 16 -10 q 8 0 12 8" stroke-width="2" opacity="1"></path>
    <path d="M32 32 q -6 10 -16 10 q -8 0 -12 -8" stroke-width="2" opacity="1"></path>
  </g>
  <circle cx="32" cy="32" r="20" fill="url(#nuc)"></circle>
  <circle cx="32" cy="32" r="3.5" fill="#ffffff"></circle>
</svg>